<svg width="20" height="20" viewBox="0 0 20 20" fill="none" xmlns="http://www.w3.org/2000/svg">
<path d="M17.5758 10V16C17.5758 16.3978 17.4161 16.7794 17.132 17.0607C16.8478 17.342 16.4624 17.5 16.0606 17.5H3.93939C3.53755 17.5 3.15217 17.342 2.86802 17.0607C2.58387 16.7794 2.42424 16.3978 2.42424 16V10C2.22332 10 2.03063 9.92098 1.88855 9.78033C1.74648 9.63968 1.66667 9.44891 1.66667 9.25V7C1.66667 6.60218 1.8263 6.22064 2.11044 5.93934C2.39459 5.65804 2.77997 5.5 3.18182 5.5H5.58333C5.49771 5.25905 5.45416 5.00542 5.45454 4.75C5.45454 4.15326 5.69399 3.58097 6.12021 3.15901C6.54643 2.73705 7.12451 2.5 7.72727 2.5C8.48485 2.5 9.15151 2.875 9.56818 3.43V3.4225L10 4L10.4318 3.4225V3.43C10.8485 2.875 11.5152 2.5 12.2727 2.5C12.8755 2.5 13.4536 2.73705 13.8798 3.15901C14.306 3.58097 14.5455 4.15326 14.5455 4.75C14.5458 5.00542 14.5023 5.25905 14.4167 5.5H16.8182C17.22 5.5 17.6054 5.65804 17.8896 5.93934C18.1737 6.22064 18.3333 6.60218 18.3333 7V9.25C18.3333 9.44891 18.2535 9.63968 18.1114 9.78033C17.9694 9.92098 17.7767 10 17.5758 10ZM3.93939 16H9.24242V10H3.93939V16ZM16.0606 16V10H10.7576V16H16.0606ZM7.72727 4C7.52635 4 7.33366 4.07902 7.19159 4.21967C7.04951 4.36032 6.9697 4.55109 6.9697 4.75C6.9697 4.94891 7.04951 5.13968 7.19159 5.28033C7.33366 5.42098 7.52635 5.5 7.72727 5.5C7.92819 5.5 8.12089 5.42098 8.26296 5.28033C8.40503 5.13968 8.48485 4.94891 8.48485 4.75C8.48485 4.55109 8.40503 4.36032 8.26296 4.21967C8.12089 4.07902 7.92819 4 7.72727 4ZM12.2727 4C12.0718 4 11.8791 4.07902 11.737 4.21967C11.595 4.36032 11.5152 4.55109 11.5152 4.75C11.5152 4.94891 11.595 5.13968 11.737 5.28033C11.8791 5.42098 12.0718 5.5 12.2727 5.5C12.4736 5.5 12.6663 5.42098 12.8084 5.28033C12.9505 5.13968 13.0303 4.94891 13.0303 4.75C13.0303 4.55109 12.9505 4.36032 12.8084 4.21967C12.6663 4.07902 12.4736 4 12.2727 4ZM3.18182 7V8.5H9.24242V7H3.18182ZM10.7576 7V8.5H16.8182V7H10.7576Z" fill="#636363"/>
</svg>
