<svg width="16" height="16" viewBox="0 0 16 16" fill="none" xmlns="http://www.w3.org/2000/svg">
<path d="M8 1C11.3134 1.00018 13.9998 3.68661 14 7C13.9999 9.00678 13.0133 10.7819 11.5 11.8711V14.8193C11.5 14.9976 11.4052 15.1625 11.251 15.252C11.0968 15.3414 10.9067 15.3415 10.752 15.2529L8 13.6787L5.24805 15.2529C5.09331 15.3415 4.90324 15.3414 4.74903 15.252C4.59484 15.1625 4.5 14.9976 4.5 14.8193V11.8711C2.9867 10.7819 2.00014 9.00684 2 7C2.00025 3.6865 4.68645 1.00001 8 1ZM8.37598 3.34961C8.23681 3.00331 7.7632 3.00331 7.62403 3.34961L6.85059 5.25391L4.875 5.42969C4.51522 5.45972 4.36785 5.93046 4.6416 6.17871L6.14258 7.54004L5.69336 9.55957C5.61196 9.92733 5.99204 10.2189 6.30274 10.0225L8 8.95215L9.69727 10.0264C10.0079 10.2229 10.3878 9.93211 10.3066 9.56445L9.85742 7.54395L11.3584 6.18262C11.6319 5.93431 11.4847 5.46357 11.125 5.43359L9.14942 5.25879L8.37598 3.34961Z" fill="white"/>
</svg>
