<svg width="20" height="20" viewBox="0 0 20 20" fill="none" xmlns="http://www.w3.org/2000/svg">
<path d="M9.31836 3C9.43705 3.00003 9.51155 3.03447 9.57617 3.09766C9.64014 3.16021 9.67113 3.22708 9.6709 3.33203C9.67064 3.43844 9.63905 3.50746 9.57422 3.57129C9.51088 3.63364 9.43781 3.66753 9.32031 3.66699H3.7041V16.333H9.31836C9.43696 16.333 9.51158 16.3676 9.57617 16.4307C9.64009 16.4932 9.67107 16.5603 9.6709 16.665C9.67064 16.7714 9.63896 16.8405 9.57422 16.9043C9.51087 16.9667 9.43783 17.0005 9.32031 17H4.2041C3.8655 16.9999 3.59007 16.8875 3.35059 16.6533C3.11145 16.4195 3.00047 16.1549 3 15.833V4.16699C3 3.84616 3.11087 3.58165 3.35059 3.34766C3.56099 3.14235 3.79847 3.03091 4.08105 3.00586L4.20508 3H9.31836ZM13.5947 6.69727C13.7018 6.69411 13.7757 6.7234 13.8477 6.79395V6.79492L16.8945 9.77441C16.9765 9.85461 17 9.92284 17 10C17 10.0772 16.9765 10.1454 16.8945 10.2256L13.8477 13.2051C13.7722 13.2787 13.7002 13.3055 13.6045 13.3027C13.503 13.2998 13.422 13.2675 13.3418 13.1924C13.2812 13.1251 13.2568 13.0582 13.2598 12.9648C13.2632 12.8574 13.295 12.7891 13.3545 12.7305L14.9307 11.1904L15.8076 10.333H8.46582C8.34709 10.333 8.27282 10.299 8.20898 10.2363C8.14491 10.1734 8.11358 10.1052 8.11328 9.99902C8.11303 9.89457 8.14364 9.82737 8.20801 9.76465C8.27393 9.70043 8.34894 9.66701 8.46582 9.66699H15.8076L14.9307 8.80957L13.332 7.24707C13.2739 7.19022 13.2491 7.13201 13.249 7.04199C13.249 6.95081 13.2758 6.87755 13.3477 6.80078C13.4073 6.73718 13.4777 6.70077 13.5947 6.69727Z" fill="#636363" stroke="#636363"/>
</svg>
