<svg width="24" height="24" viewBox="0 0 24 24" fill="none" xmlns="http://www.w3.org/2000/svg">
<path d="M12 13.9004C14.5606 13.9004 16.8837 14.7334 18.5518 15.8838C20.2695 17.0685 21.0996 18.4398 21.0996 19.4287C21.0996 19.7583 20.9693 20.0746 20.7363 20.3076C20.5033 20.5406 20.1869 20.6718 19.8574 20.6719H4.14258C3.81305 20.6718 3.49669 20.5406 3.26367 20.3076C3.03067 20.0746 2.90043 19.7583 2.90039 19.4287C2.90039 18.4398 3.73053 17.0685 5.44824 15.8838C7.11626 14.7334 9.43939 13.9004 12 13.9004ZM12 2.90039C13.0874 2.90039 14.1305 3.33169 14.8994 4.10059C15.6683 4.86948 16.0996 5.91261 16.0996 7C16.0996 8.08739 15.6683 9.13052 14.8994 9.89941C14.1305 10.6683 13.0874 11.0996 12 11.0996C10.9126 11.0996 9.86948 10.6683 9.10059 9.89941C8.33169 9.13052 7.90039 8.08739 7.90039 7C7.90039 5.91261 8.33169 4.86949 9.10059 4.10059C9.86948 3.33169 10.9126 2.90039 12 2.90039Z" stroke="#8E8E8E" stroke-width="1.8"/>
</svg>
