<svg width="20" height="20" viewBox="0 0 20 20" fill="none" xmlns="http://www.w3.org/2000/svg">
<path d="M16 3.33334H4C3.175 3.33334 2.5 4.00834 2.5 4.83334V15.9191C2.5 16.81 3.57714 17.2562 4.20711 16.6262L5.20711 15.6262C5.39464 15.4387 5.649 15.3333 5.91421 15.3333H16C16.825 15.3333 17.5 14.6583 17.5 13.8333V4.83334C17.5 4.00834 16.825 3.33334 16 3.33334ZM16 12.8333C16 13.3856 15.5523 13.8333 15 13.8333H5.05924C4.94287 13.8333 4.83127 13.8796 4.74899 13.9619C4.4726 14.2382 4 14.0425 4 13.6516V5.83334C4 5.28106 4.44772 4.83334 5 4.83334H15C15.5523 4.83334 16 5.28106 16 5.83334V12.8333Z" fill="#636363"/>
<path d="M9.99998 11.153L11.4977 12.1008C11.772 12.2746 12.1077 12.0178 12.0355 11.693L11.6385 9.91058L12.963 8.70971C13.2048 8.49068 13.0749 8.07529 12.7573 8.04885L11.0141 7.89403L10.332 6.20979C10.2093 5.90391 9.79065 5.90391 9.66795 6.20979L8.98584 7.89025L7.24268 8.04508C6.92508 8.07151 6.79516 8.48691 7.03696 8.70593L8.36148 9.9068L7.96448 11.6892C7.8923 12.014 8.22794 12.2708 8.50223 12.0971L9.99998 11.153Z" fill="#636363"/>
</svg>
