<svg width="24" height="24" viewBox="0 0 24 24" fill="none" xmlns="http://www.w3.org/2000/svg">
<g clip-path="url(#clip0_38_912)">
<path d="M17.8556 4.29427L18.4721 3.84659C18.6634 3.70763 18.8951 3.63916 19.1258 3.65338C19.3566 3.66761 19.5715 3.76361 19.7322 3.92427C19.8928 4.08493 19.9888 4.29981 20.003 4.53059C20.0173 4.76137 19.9488 4.99305 19.8098 5.18433L19.3622 5.80083L23.6346 10.0733C23.806 10.2446 23.8994 10.4799 23.8944 10.7272C23.8893 10.9746 23.7862 11.2138 23.6077 11.3923L19.8544 15.1456C19.482 15.518 18.892 15.5291 18.5354 15.1725L15.3397 11.9768L6.87967 21.3636C6.62014 21.6517 6.30674 21.8863 5.95861 22.053C5.61048 22.2197 5.2349 22.315 4.85479 22.3332C4.47468 22.3514 4.09801 22.2921 3.74774 22.1588C3.39748 22.0256 3.08097 21.8212 2.81752 21.5582L2.09912 20.8398C1.83589 20.5764 1.63133 20.2599 1.49792 19.9096C1.36451 19.5592 1.30505 19.1825 1.32317 18.8023C1.34129 18.4221 1.43662 18.0464 1.60333 17.6981C1.77003 17.3499 2.00463 17.0364 2.29279 16.7768L11.6796 8.31676L8.4839 5.12102C8.31256 4.94968 8.21913 4.71445 8.22418 4.46709C8.22923 4.21973 8.33234 3.9805 8.51082 3.80202L8.67502 3.63782C9.80508 2.50776 11.3197 1.8548 12.8859 1.8225C14.4521 1.79021 15.9416 2.38123 17.0269 3.46561L17.8556 4.29427ZM12.9734 9.61056L3.50961 18.1389C3.41357 18.2256 3.33543 18.3302 3.27996 18.4464C3.22449 18.5626 3.19285 18.688 3.18697 18.8148C3.18109 18.9416 3.2011 19.0672 3.24577 19.1839C3.29045 19.3007 3.35885 19.4061 3.44679 19.4938L4.16433 20.2114C4.25212 20.2989 4.35755 20.367 4.47421 20.4113C4.59087 20.4557 4.71632 20.4754 4.84292 20.4694C4.96951 20.4634 5.09461 20.4317 5.21058 20.3762C5.32655 20.3207 5.43098 20.2427 5.5175 20.1468L14.0467 10.6839L12.9734 9.61056ZM10.5172 4.46249L19.2362 13.1814L21.6435 10.774L15.6819 4.81239C15.0241 4.15467 14.1461 3.75922 13.2019 3.69539C12.2576 3.63157 11.3066 3.90259 10.5172 4.46249Z" fill="#FF6B35"/>
</g>
<defs>
<clipPath id="clip0_38_912">
<rect width="24" height="24" fill="white"/>
</clipPath>
</defs>
</svg>
