<svg width="24" height="24" viewBox="0 0 24 24" fill="none" xmlns="http://www.w3.org/2000/svg">
<path d="M3 22C2.44772 22 2 21.5523 2 21V9.66599C2 9.34325 2.15577 9.04034 2.41828 8.8526L11.4183 2.41603C11.7662 2.16722 12.2338 2.16722 12.5817 2.41603L21.5817 8.8526C21.8442 9.04034 22 9.34325 22 9.66599V21C22 21.5523 21.5523 22 21 22H15.5829C15.0306 22 14.5829 21.5523 14.5829 21V15.7184C14.5829 15.1661 14.1351 14.7184 13.5829 14.7184H10.4171C9.86486 14.7184 9.41714 15.1661 9.41714 15.7184V21C9.41714 21.5523 8.96943 22 8.41714 22H3Z" stroke="#8E8E8E" stroke-width="1.8" stroke-linejoin="round"/>
</svg>
