<svg width="20" height="20" viewBox="0 0 20 20" fill="none" xmlns="http://www.w3.org/2000/svg">
<path d="M16 3.3335H4C3.175 3.3335 2.5 4.0085 2.5 4.8335V15.9193C2.5 16.8102 3.57714 17.2564 4.20711 16.6264L5.20711 15.6264C5.39464 15.4389 5.649 15.3335 5.91421 15.3335H16C16.825 15.3335 17.5 14.6585 17.5 13.8335V4.8335C17.5 4.0085 16.825 3.3335 16 3.3335ZM16 12.8335C16 13.3858 15.5523 13.8335 15 13.8335H5.05924C4.94287 13.8335 4.83127 13.8797 4.74899 13.962C4.4726 14.2384 4 14.0426 4 13.6518V5.8335C4 5.28121 4.44772 4.8335 5 4.8335H15C15.5523 4.8335 16 5.28121 16 5.8335V12.8335Z" fill="#636363"/>
<path d="M10 11.1531L11.4977 12.1009C11.772 12.2746 12.1077 12.0179 12.0355 11.6931L11.6385 9.91067L12.963 8.7098C13.2048 8.49077 13.0749 8.07538 12.7573 8.04895L11.0141 7.89412L10.332 6.20988C10.2093 5.904 9.79068 5.904 9.66797 6.20988L8.98586 7.89034L7.2427 8.04517C6.9251 8.0716 6.79518 8.487 7.03698 8.70602L8.3615 9.90689L7.9645 11.6893C7.89232 12.0141 8.22796 12.2709 8.50225 12.0972L10 11.1531Z" fill="#636363"/>
</svg>
