<svg width="24" height="24" viewBox="0 0 24 24" fill="none" xmlns="http://www.w3.org/2000/svg">
<path d="M19.2 4H4.8C3.81 4 3 4.81 3 5.8V19.5858C3 20.4767 4.07714 20.9229 4.70711 20.2929L6.30711 18.6929C6.49464 18.5054 6.749 18.4 7.01421 18.4H19.2C20.19 18.4 21 17.59 21 16.6V5.8C21 4.81 20.19 4 19.2 4ZM19.2 15.6C19.2 16.1523 18.7523 16.6 18.2 16.6H6.07108C5.93145 16.6 5.79753 16.6555 5.69879 16.7542C5.36712 17.0859 4.8 16.851 4.8 16.3819V6.8C4.8 6.24772 5.24772 5.8 5.8 5.8H18.2C18.7523 5.8 19.2 6.24772 19.2 6.8V15.6Z" fill="white"/>
<path d="M12.0001 13.3834L13.7974 14.5208C14.1265 14.7293 14.5293 14.4211 14.4427 14.0314L13.9663 11.8925L15.5557 10.4515C15.8459 10.1886 15.6899 9.69016 15.3088 9.65844L13.217 9.47265L12.3985 7.45156C12.2513 7.08451 11.7489 7.08451 11.6016 7.45156L10.7831 9.46812L8.69131 9.65391C8.3102 9.68563 8.15428 10.1841 8.44445 10.4469L10.0339 11.888L9.55748 14.0269C9.47086 14.4166 9.87363 14.7247 10.2028 14.5163L12.0001 13.3834Z" fill="white"/>
</svg>
