<svg width="24" height="24" viewBox="0 0 24 24" fill="none" xmlns="http://www.w3.org/2000/svg">
<path d="M21.0909 12V19.2C21.0909 19.6774 20.8994 20.1352 20.5584 20.4728C20.2174 20.8104 19.7549 21 19.2727 21H4.72727C4.24506 21 3.7826 20.8104 3.44162 20.4728C3.10065 20.1352 2.90909 19.6774 2.90909 19.2V12C2.66799 12 2.43675 11.9052 2.26627 11.7364C2.09578 11.5676 2 11.3387 2 11.1V8.4C2 7.92261 2.19156 7.46477 2.53253 7.12721C2.87351 6.78964 3.33597 6.6 3.81818 6.6H6.7C6.59726 6.31086 6.545 6.00651 6.54545 5.7C6.54545 4.98392 6.83279 4.29716 7.34425 3.79081C7.85572 3.28446 8.54941 3 9.27273 3C10.1818 3 10.9818 3.45 11.4818 4.116V4.107L12 4.8L12.5182 4.107V4.116C13.0182 3.45 13.8182 3 14.7273 3C15.4506 3 16.1443 3.28446 16.6557 3.79081C17.1672 4.29716 17.4545 4.98392 17.4545 5.7C17.455 6.00651 17.4027 6.31086 17.3 6.6H20.1818C20.664 6.6 21.1265 6.78964 21.4675 7.12721C21.8084 7.46477 22 7.92261 22 8.4V11.1C22 11.3387 21.9042 11.5676 21.7337 11.7364C21.5632 11.9052 21.332 12 21.0909 12ZM4.72727 19.2H11.0909V12H4.72727V19.2ZM19.2727 19.2V12H12.9091V19.2H19.2727ZM9.27273 4.8C9.03162 4.8 8.80039 4.89482 8.6299 5.0636C8.45942 5.23239 8.36364 5.46131 8.36364 5.7C8.36364 5.93869 8.45942 6.16761 8.6299 6.3364C8.80039 6.50518 9.03162 6.6 9.27273 6.6C9.51383 6.6 9.74506 6.50518 9.91555 6.3364C10.086 6.16761 10.1818 5.93869 10.1818 5.7C10.1818 5.46131 10.086 5.23239 9.91555 5.0636C9.74506 4.89482 9.51383 4.8 9.27273 4.8ZM14.7273 4.8C14.4862 4.8 14.2549 4.89482 14.0844 5.0636C13.914 5.23239 13.8182 5.46131 13.8182 5.7C13.8182 5.93869 13.914 6.16761 14.0844 6.3364C14.2549 6.50518 14.4862 6.6 14.7273 6.6C14.9684 6.6 15.1996 6.50518 15.3701 6.3364C15.5406 6.16761 15.6364 5.93869 15.6364 5.7C15.6364 5.46131 15.5406 5.23239 15.3701 5.0636C15.1996 4.89482 14.9684 4.8 14.7273 4.8ZM3.81818 8.4V10.2H11.0909V8.4H3.81818ZM12.9091 8.4V10.2H20.1818V8.4H12.9091Z" fill="#FF6B35"/>
</svg>
