<svg width="16" height="16" viewBox="0 0 16 16" fill="none" xmlns="http://www.w3.org/2000/svg">
<path d="M10.3712 9.55687L10.0679 9.84999C10.0679 9.84999 9.34586 10.5462 7.37587 8.64515C5.40588 6.74408 6.12788 6.04784 6.12788 6.04784L6.31854 5.86278C6.78987 5.40854 6.83454 4.67865 6.42321 4.14547L5.58321 3.05646C5.07388 2.39646 4.09056 2.3091 3.50723 2.87205L2.46057 3.88147C2.1719 4.161 1.97857 4.52206 2.00191 4.92324C2.06191 5.95013 2.54057 8.15856 5.20988 10.7352C8.0412 13.4671 10.6978 13.5758 11.7838 13.4774C12.1278 13.4464 12.4265 13.2768 12.6672 13.0439L13.6138 12.1302C14.2538 11.5136 14.0738 10.4556 13.2552 10.024L11.9818 9.35175C11.4445 9.06898 10.7912 9.15181 10.3712 9.55687Z" fill="#8E8E8E"/>
</svg>
