<svg width="12" height="12" viewBox="0 0 12 12" fill="none" xmlns="http://www.w3.org/2000/svg">
<path fill-rule="evenodd" clip-rule="evenodd" d="M4.22368 10.4472C4.06885 10.5246 3.88468 10.5165 3.73735 10.4257C3.58998 10.3346 3.50009 10.1731 3.50005 9.9999L3.50005 8.12099C2.61821 7.41393 2.0393 6.34024 2.002 5.12197C1.9347 2.91407 3.67004 1.06942 5.87798 1.00185C8.08607 0.934331 9.93055 2.66974 9.9981 4.87783C10.038 6.18436 9.44699 7.36383 8.50005 8.12295L8.50005 9.9999C8.50001 10.1731 8.41009 10.3346 8.26275 10.4257C8.11544 10.5166 7.93127 10.5245 7.77642 10.4472L6.00005 9.55849L4.22368 10.4472ZM6.96978 6.96377C7.14737 7.07613 7.36508 6.90937 7.31841 6.69912L7.0606 5.54482L7.919 4.76748C8.07542 4.6256 7.99083 4.35686 7.78521 4.33974L6.6563 4.23916L6.21489 3.14834C6.13543 2.95037 5.86478 2.95048 5.78521 3.14834L5.34282 4.2372L4.21392 4.33681C4.00846 4.35412 3.9247 4.62273 4.08111 4.76455L4.93853 5.54287L4.68169 6.69716C4.63517 6.90727 4.85183 7.07293 5.02935 6.96084L6.00005 6.34951L6.96978 6.96377Z" fill="#CD7F32"/>
</svg>
