<svg width="20" height="20" viewBox="0 0 20 20" fill="none" xmlns="http://www.w3.org/2000/svg">
<path d="M11.2483 4.0917C11.111 3.96817 10.9337 3.89993 10.75 3.8999H4.75C4.15326 3.8999 3.58097 4.13978 3.15901 4.56676C2.73705 4.99374 2.5 5.57285 2.5 6.17669V13.766C2.5 14.3698 2.73705 14.9489 3.15901 15.3759C3.58097 15.8029 4.15326 16.0428 4.75 16.0428H10.75C10.9489 16.0428 11.1397 15.9628 11.2803 15.8205C11.421 15.6781 11.5 15.4851 11.5 15.2838L11.5052 15.195C11.5278 15.003 11.622 14.8268 11.7686 14.7027C11.9152 14.5785 12.1031 14.5157 12.294 14.527C12.4848 14.5384 12.6641 14.623 12.7954 14.7637C12.9266 14.9043 12.9998 15.0904 13 15.2838L13.0052 15.3726C13.0267 15.5572 13.1144 15.7274 13.2517 15.851C13.389 15.9745 13.5663 16.0427 13.75 16.0428H15.25C15.8467 16.0428 16.419 15.8029 16.841 15.3759C17.2629 14.9489 17.5 14.3698 17.5 13.766V6.17669C17.5 5.57285 17.2629 4.99374 16.841 4.56676C16.419 4.13978 15.8467 3.8999 15.25 3.8999H13.75C13.5511 3.8999 13.3603 3.97986 13.2197 4.12219C13.079 4.26451 13 4.45755 13 4.65883L12.9948 4.74763C12.9722 4.93971 12.878 5.11582 12.7314 5.23997C12.5848 5.36412 12.3969 5.42695 12.206 5.41561C12.0152 5.40428 11.8359 5.31963 11.7046 5.17898C11.5734 5.03832 11.5002 4.85227 11.5 4.65883L11.4948 4.57004C11.4733 4.38543 11.3856 4.21522 11.2483 4.0917Z" stroke="#636363" stroke-width="1.5"/>
<path d="M12.1428 7.47119L12.1428 8.89976" stroke="#636363" stroke-width="1.5" stroke-linecap="round"/>
<path d="M12.1429 11.0425L12.1429 12.4711" stroke="#636363" stroke-width="1.5" stroke-linecap="round"/>
</svg>
