<svg width="24" height="24" viewBox="0 0 24 24" fill="none" xmlns="http://www.w3.org/2000/svg">
<path d="M21.5 10.4118V6C21.5 4.34315 20.1569 3 18.5 3H5.5C3.84315 3 2.5 4.34315 2.5 6V10.4118M21.5 10.4118V18C21.5 19.6569 20.1569 21 18.5 21H5.5C3.84315 21 2.5 19.6569 2.5 18V10.4118M21.5 10.4118H13.8095M2.5 10.4118H10.1905" stroke="#8E8E8E" stroke-width="1.8"/>
<path d="M10.375 8.98863H13.625C13.6802 8.98863 13.7246 9.03301 13.7246 9.08824V12.4564C13.7246 12.4965 13.7009 12.5325 13.6641 12.5482L12.0391 13.2406C12.0141 13.2512 11.9859 13.2512 11.9609 13.2406L10.3359 12.5482C10.2991 12.5325 10.2754 12.4965 10.2754 12.4564V9.08824C10.2754 9.03301 10.3198 8.98863 10.375 8.98863Z" stroke="#8E8E8E" stroke-width="1.8"/>
</svg>
