<svg width="16" height="16" viewBox="0 0 16 16" fill="none" xmlns="http://www.w3.org/2000/svg">
<path fill-rule="evenodd" clip-rule="evenodd" d="M3.62684 13.9981C3.39991 14.0089 3.17482 13.9732 2.9657 13.8936C2.75661 13.814 2.56733 13.6923 2.41004 13.5352L1.98133 13.1065C1.82417 12.9492 1.70165 12.76 1.62196 12.5508C1.54226 12.3416 1.50664 12.1159 1.51746 11.8887C1.52832 11.6617 1.58589 11.4375 1.68543 11.2296C1.78501 11.0216 1.92447 10.8338 2.09656 10.6788L7.70399 5.62604L5.79481 3.71686C5.69251 3.61455 5.63656 3.47393 5.63953 3.32624C5.64255 3.17848 5.7048 3.03539 5.81141 2.92877L5.90907 2.83112C6.58409 2.15609 7.48915 1.76545 8.42469 1.74616C9.36015 1.72692 10.2501 2.07992 10.8983 2.7276L11.3934 3.22272L11.7616 2.95514C11.8758 2.87229 12.0145 2.83142 12.1522 2.83991C12.2899 2.84848 12.4177 2.90622 12.5136 3.00202C12.6095 3.09799 12.6672 3.22647 12.6757 3.36432C12.6841 3.50208 12.6434 3.64077 12.5604 3.75495L12.2929 4.12311L14.8456 6.67487C14.9478 6.7772 15.0029 6.91785 14.9999 7.06549C14.9969 7.21325 14.9356 7.35634 14.829 7.46295L12.5868 9.70514C12.3644 9.92728 12.0116 9.93369 11.7987 9.72077L9.89051 7.81159L4.8368 13.419C4.68183 13.591 4.49485 13.7315 4.28699 13.8311C4.07904 13.9307 3.85389 13.9872 3.62684 13.9981Z" fill="#8E8E8E"/>
</svg>
