<svg width="36" height="36" viewBox="0 0 36 36" fill="none" xmlns="http://www.w3.org/2000/svg">
<rect x="1" y="1" width="34" height="34" rx="17" fill="#2980B9"/>
<rect x="1" y="1" width="34" height="34" rx="17" stroke="white" stroke-width="2"/>
<path d="M25.0336 17.2244V23.7352C25.0336 24.2033 24.8483 24.6521 24.5184 24.9831C24.1884 25.314 23.741 25.4999 23.2744 25.4999H20.639H12.7259C12.2595 25.4997 11.8123 25.3137 11.4825 24.9828C11.1528 24.6518 10.9676 24.2031 10.9676 23.7352V17.2244M14.0436 15.5735L14.4834 10.5M14.0436 15.5735C14.0436 18.1341 18.0002 18.1341 18.0002 15.5735M14.0436 15.5735C14.0436 18.3759 9.50915 17.797 10.1442 15.3547L11.0634 11.8191C11.1617 11.4415 11.3819 11.1072 11.6898 10.8685C11.9976 10.6298 12.3756 10.5002 12.7646 10.5H23.2357C23.6247 10.5002 24.0028 10.6298 24.3106 10.8685C24.6184 11.1072 24.8386 11.4415 24.9369 11.8191L25.8561 15.3547C26.4912 17.7979 21.9567 18.3759 21.9567 15.5735M18.0002 15.5735V10.5M18.0002 15.5735C18.0002 18.1341 21.9567 18.1341 21.9567 15.5735M21.9567 15.5735L21.5169 10.5" stroke="white" stroke-width="1.5" stroke-linecap="round" stroke-linejoin="round"/>
<path d="M15.361 22.0881C15.361 21.5358 15.8087 21.0881 16.361 21.0881H19.6387C20.191 21.0881 20.6387 21.5359 20.6387 22.0881V25.4999H15.361V22.0881Z" stroke="white" stroke-width="1.5"/>
</svg>
