<svg width="16" height="16" viewBox="0 0 16 16" fill="none" xmlns="http://www.w3.org/2000/svg">
<path d="M8 1.5C6.67438 1.50154 5.40348 2.04011 4.46613 2.99756C3.52877 3.95501 3.00151 5.25315 3 6.60719C3 10.9773 7.54546 14.2779 7.73921 14.416C7.81563 14.4707 7.90669 14.5 8 14.5C8.09332 14.5 8.18437 14.4707 8.2608 14.416C8.45455 14.2779 13 10.9773 13 6.60719C12.9985 5.25315 12.4712 3.95501 11.5339 2.99756C10.5965 2.04011 9.32562 1.50154 8 1.5ZM8 4.75003C8.3596 4.75003 8.71113 4.85895 9.01013 5.06302C9.30913 5.26709 9.54217 5.55714 9.67978 5.89649C9.8174 6.23584 9.8534 6.60925 9.78325 6.96951C9.71309 7.32976 9.53993 7.66068 9.28565 7.92041C9.03137 8.18013 8.7074 8.35701 8.35471 8.42867C8.00202 8.50033 7.63644 8.46355 7.30421 8.32299C6.97198 8.18242 6.68802 7.94439 6.48824 7.63898C6.28845 7.33357 6.18182 6.97451 6.18182 6.60719C6.18182 6.11464 6.37338 5.64227 6.71435 5.29398C7.05533 4.9457 7.51779 4.75003 8 4.75003Z" fill="#8E8E8E"/>
</svg>
