<svg width="24" height="24" viewBox="0 0 24 24" fill="none" xmlns="http://www.w3.org/2000/svg">
<path d="M12 1.90039C14.0099 1.90299 15.9403 2.71515 17.3662 4.16504C18.7928 5.61561 19.5972 7.5858 19.5996 9.64355C19.5994 13.0322 17.8223 16.0751 15.9062 18.3574C14.1733 20.4215 12.4042 21.7684 12 22.0654C11.5958 21.7684 9.82667 20.4215 8.09375 18.3574C6.17769 16.0751 4.4006 13.0322 4.40039 9.64355C4.40279 7.5858 5.20721 5.61561 6.63379 4.16504C8.05971 2.71515 9.99005 1.90299 12 1.90039ZM12 5.59961C10.9368 5.59961 9.92007 6.02944 9.17285 6.78906C8.4262 7.54827 8.00888 8.57527 8.00879 9.64258C8.00879 10.4387 8.24128 11.2185 8.67773 11.8828C9.11445 12.5474 9.73687 13.0681 10.4678 13.376C11.1988 13.6839 12.0041 13.7646 12.7812 13.6074C13.5583 13.4503 14.27 13.0626 14.8271 12.4961C15.3841 11.9298 15.7622 11.2101 15.915 10.4287C16.0678 9.64748 15.9896 8.83739 15.6895 8.10059C15.3892 7.36357 14.8791 6.73118 14.2227 6.28516C13.5661 5.83914 12.7926 5.59961 12 5.59961Z" stroke="#8E8E8E" stroke-width="1.8"/>
</svg>
