<svg width="24" height="24" viewBox="0 0 24 24" fill="none" xmlns="http://www.w3.org/2000/svg">
<path d="M13.6644 4.15572C13.4813 3.99102 13.2449 3.90003 13 3.89999H5C4.20435 3.89999 3.44129 4.21983 2.87868 4.78913C2.31607 5.35844 2 6.13059 2 6.93571V17.0548C2 17.8599 2.31607 18.632 2.87868 19.2013C3.44129 19.7706 4.20435 20.0905 5 20.0905H13C13.2652 20.0905 13.5196 19.9839 13.7071 19.7941C13.8946 19.6043 14 19.3469 14 19.0786L14.007 18.9602C14.0371 18.7041 14.1627 18.4693 14.3582 18.3037C14.5536 18.1382 14.8042 18.0544 15.0586 18.0695C15.313 18.0846 15.5522 18.1975 15.7272 18.385C15.9021 18.5726 15.9997 18.8207 16 19.0786L16.007 19.197C16.0357 19.4431 16.1526 19.67 16.3356 19.8347C16.5187 19.9994 16.7551 20.0904 17 20.0905H19C19.7956 20.0905 20.5587 19.7706 21.1213 19.2013C21.6839 18.632 22 17.8599 22 17.0548V6.93571C22 6.13059 21.6839 5.35844 21.1213 4.78913C20.5587 4.21983 19.7956 3.89999 19 3.89999H17C16.7348 3.89999 16.4804 4.00661 16.2929 4.19637C16.1054 4.38614 16 4.64352 16 4.9119L15.993 5.03029C15.9629 5.2864 15.8373 5.52121 15.6418 5.68675C15.4464 5.85229 15.1958 5.93606 14.9414 5.92094C14.687 5.90583 14.4478 5.79297 14.2728 5.60543C14.0979 5.41788 14.0003 5.16981 14 4.9119L13.993 4.79351C13.9643 4.54736 13.8474 4.32041 13.6644 4.15572Z" stroke="#8E8E8E" stroke-width="1.8"/>
<path d="M14.8571 8.66191L14.8571 10.5667" stroke="#8E8E8E" stroke-width="1.8" stroke-linecap="round"/>
<path d="M14.8571 13.4238L14.8571 15.3286" stroke="#8E8E8E" stroke-width="1.8" stroke-linecap="round"/>
</svg>
