<svg width="20" height="20" viewBox="0 0 20 20" fill="none" xmlns="http://www.w3.org/2000/svg">
<path fill-rule="evenodd" clip-rule="evenodd" d="M18.7488 11.6446C18.8952 11.419 18.9808 11.1579 18.9971 10.8877C19.0135 10.6175 18.9599 10.3476 18.8419 10.1053L18.8073 10.0345C18.5572 9.52259 18.1825 9.08511 17.7193 8.76418C17.2561 8.44326 16.72 8.24969 16.1625 8.20211L12.9687 7.9301L9.13532 2.44042C9.04009 2.30417 8.91446 2.19313 8.76887 2.11653C8.62327 2.03993 8.4619 1.99998 8.29818 2H5.94727C5.8097 2.00004 5.67429 2.035 5.55318 2.10175C5.43207 2.1685 5.32904 2.26496 5.25333 2.38247C5.17763 2.49998 5.13161 2.63487 5.1194 2.77506C5.10719 2.91524 5.12918 3.05633 5.18339 3.18568L7.2108 8.02526L5.10684 8.26442L4.62283 7.52168C4.52891 7.37745 4.40163 7.25916 4.25229 7.17734C4.10295 7.09551 3.93617 7.05267 3.76676 7.05263H1.83154C1.69567 7.0526 1.56187 7.08664 1.44183 7.15177C1.3218 7.2169 1.2192 7.31113 1.14301 7.42622C1.06682 7.54131 1.01937 7.67375 1.0048 7.81194C0.990224 7.95014 1.00898 8.08988 1.05943 8.21895L2.68103 12.3655C2.74823 12.5371 2.8641 12.6843 3.01373 12.788C3.16336 12.8917 3.3399 12.9472 3.52064 12.9474H16.3691C17.3248 12.9474 18.2187 12.4589 18.7488 11.6446ZM16.0259 9.88042C16.3002 9.90387 16.5641 9.99875 16.7925 10.156C17.0209 10.3133 17.2061 10.5277 17.3306 10.7789C17.2174 10.9298 17.0718 11.0519 16.9051 11.1359C16.7384 11.2198 16.555 11.2634 16.3691 11.2632H4.02193L3.03416 8.73684H3.43667L4.01288 9.62105C4.18491 9.88547 4.48701 10.0295 4.79569 9.9941L8.48338 9.57474C8.6124 9.56019 8.7363 9.51493 8.84516 9.4426C8.95401 9.37026 9.0448 9.27286 9.11025 9.15818C9.1757 9.0435 9.21399 8.91474 9.22206 8.78221C9.23013 8.64967 9.20775 8.51705 9.15672 8.39495L7.18281 3.68421H7.98127L11.8484 9.22358C11.99 9.42568 12.2122 9.55537 12.4559 9.57642L16.0259 9.88042ZM2.64234 16.3158C2.42403 16.3158 2.21466 16.4045 2.06029 16.5624C1.90592 16.7204 1.81919 16.9346 1.81919 17.1579C1.81919 17.3812 1.90592 17.5954 2.06029 17.7534C2.21466 17.9113 2.42403 18 2.64234 18H17.459C17.6773 18 17.8867 17.9113 18.041 17.7534C18.1954 17.5954 18.2821 17.3812 18.2821 17.1579C18.2821 16.9346 18.1954 16.7204 18.041 16.5624C17.8867 16.4045 17.6773 16.3158 17.459 16.3158H2.64234Z" fill="#636363"/>
</svg>
