<svg width="20" height="20" viewBox="0 0 20 20" fill="none" xmlns="http://www.w3.org/2000/svg">
<path d="M16.9445 8.43963V5C16.9445 3.89543 16.049 3 14.9445 3H5.00001C3.89544 3 3.00001 3.89543 3.00001 5V8.43963M16.9445 8.43963V14.2105C16.9445 15.3151 16.049 16.2105 14.9445 16.2105H5.00001C3.89544 16.2105 3.00001 15.3151 3.00001 14.2105V8.43963M16.9445 8.43963H11.3003M3.00001 8.43963H8.64419" stroke="#636363" stroke-width="1.5"/>
<path d="M9.04573 7.48438H10.8993C11.0371 7.48461 11.1492 7.59645 11.1493 7.73438V9.76465C11.1492 9.8647 11.0889 9.95484 10.9969 9.99414L10.0701 10.3887C10.0076 10.4153 9.93643 10.4153 9.87386 10.3887L8.94808 9.99414C8.85593 9.95491 8.79581 9.86479 8.79573 9.76465V7.73438C8.79573 7.5963 8.90766 7.48438 9.04573 7.48438Z" stroke="#636363" stroke-width="1.5"/>
</svg>
