<svg width="24" height="24" viewBox="0 0 24 24" fill="none" xmlns="http://www.w3.org/2000/svg">
<g clip-path="url(#clip0_81_968)">
<path d="M17.8556 4.29439L18.4721 3.84672C18.6634 3.70775 18.895 3.63928 19.1258 3.6535C19.3566 3.66773 19.5715 3.76373 19.7321 3.92439C19.8928 4.08505 19.9888 4.29993 20.003 4.53071C20.0172 4.76149 19.9488 4.99317 19.8098 5.18445L19.3621 5.80095L23.6346 10.0734C23.806 10.2448 23.8994 10.48 23.8943 10.7274C23.8893 10.9747 23.7862 11.2139 23.6077 11.3924L19.8544 15.1457C19.482 15.5181 18.892 15.5293 18.5354 15.1727L15.3396 11.9769L6.87964 21.3638C6.62011 21.6518 6.30671 21.8864 5.95858 22.0531C5.61045 22.2198 5.23487 22.3152 4.85476 22.3334C4.47465 22.3516 4.09797 22.2922 3.74771 22.159C3.39745 22.0257 3.08094 21.8213 2.81749 21.5583L2.09909 20.8399C1.83586 20.5765 1.63129 20.26 1.49788 19.9097C1.36447 19.5594 1.30502 19.1826 1.32314 18.8024C1.34126 18.4222 1.43659 18.0465 1.6033 17.6982C1.77 17.35 2.0046 17.0365 2.29276 16.7769L11.6796 8.31688L8.48387 5.12114C8.31253 4.9498 8.2191 4.71458 8.22415 4.46722C8.2292 4.21986 8.3323 3.98062 8.51079 3.80214L8.67499 3.63794C9.80505 2.50788 11.3197 1.85492 12.8859 1.82262C14.4521 1.79033 15.9416 2.38135 17.0269 3.46573L17.8556 4.29439ZM12.9734 9.61069L3.50957 18.1391C3.41354 18.2257 3.3354 18.3304 3.27993 18.4465C3.22446 18.5627 3.19282 18.6881 3.18694 18.8149C3.18106 18.9417 3.20107 19.0673 3.24574 19.1841C3.29042 19.3008 3.35882 19.4063 3.44676 19.494L4.1643 20.2115C4.25209 20.299 4.35752 20.3671 4.47418 20.4114C4.59084 20.4558 4.71629 20.4756 4.84289 20.4695C4.96948 20.4635 5.09458 20.4318 5.21055 20.3763C5.32652 20.3209 5.43095 20.2428 5.51747 20.147L14.0467 10.684L12.9734 9.61069ZM10.5172 4.46261L19.2361 13.1816L21.6435 10.7742L15.6819 4.81251C15.0241 4.15479 14.1461 3.75934 13.2018 3.69552C12.2576 3.63169 11.3066 3.90271 10.5172 4.46261Z" fill="white"/>
</g>
<defs>
<clipPath id="clip0_81_968">
<rect width="24" height="24" fill="white"/>
</clipPath>
</defs>
</svg>
